<svg xmlns="http://www.w3.org/2000/svg" width="162" height="48"><g id="website" stroke="none" stroke-width="1" fill="none" fill-rule="evenodd"><g id="Home_2_updated-Copy" transform="translate(-88 -28)" fill-rule="nonzero"><g id="hero-" transform="translate(-92 -105)"><g id="top-anv" transform="translate(180 132)"><g id="Logo" transform="translate(0 1)"><g id="logotype" transform="translate(0 3)"><path d="M136.441 0c1.236 0 2.24 1.007 2.213 2.221v6.691a2.217 2.217 0 01-2.213 2.221 2.217 2.217 0 01-2.213-2.22V2.22c0-1.214.978-2.221 2.213-2.221zm23.345 22.293A2.234 2.234 0 01162 24.515a2.218 2.218 0 01-2.214 2.221h-6.667a2.217 2.217 0 01-2.213-2.221c0-1.214.978-2.222 2.213-2.222h6.667zm-4.968-16.197c.875.853.875 2.273 0 3.152l-4.71 4.728a2.201 2.201 0 01-3.14 0 2.22 2.22 0 010-3.152l4.71-4.728a2.2 2.2 0 013.14 0z" id="Lines" fill="#FC501E"/><path d="M7.878 34.976v-21.13H.002V9.79h20.18v4.056h-7.903v21.13H7.878zm23.886-.903c-1.004.541-2.214.8-3.655.903a8.17 8.17 0 01-2.523-.388c-.798-.257-1.518-.619-2.11-1.11-.618-.465-1.107-1.085-1.468-1.808-.36-.724-.54-1.55-.54-2.506v-.077c0-1.034.18-1.938.566-2.687.36-.749.9-1.395 1.57-1.886.67-.516 1.493-.878 2.445-1.137.953-.258 2.008-.387 3.14-.387 1.081 0 2.008.052 2.78.207.773.129 1.519.336 2.266.568V23.3c0-1.37-.386-2.376-1.184-3.074-.798-.697-1.956-1.033-3.475-1.033-1.055 0-2.008.103-2.832.31a17.11 17.11 0 00-2.522.852l-1.132-3.384c1.029-.49 2.11-.853 3.19-1.137 1.108-.283 2.395-.413 3.888-.413 2.806 0 4.89.697 6.228 2.093a6.687 6.687 0 011.52 2.505c.334.956.488 2.067.488 3.307v11.65h-4.195v-2.841c-.644.749-1.442 1.395-2.445 1.938zm-5.071-3.1c.695.516 1.57.749 2.625.775.695 0 1.365-.104 1.982-.285.592-.206 1.133-.465 1.57-.826a4.226 4.226 0 001.056-1.292 3.64 3.64 0 00.386-1.653V26.4c-.54-.232-1.184-.388-1.905-.542a13.49 13.49 0 00-2.368-.207c-1.39 0-2.471.284-3.243.827-.772.542-1.159 1.317-1.159 2.324v.078c0 .904.361 1.602 1.056 2.092zm17.117 4.003h4.298V8.421H43.81v26.555zm10.99.008V8.446h4.298v15.552l7.774-8.37h5.225L64.632 23.3l8.08 11.684h-5.045l-5.892-8.687-2.677 2.79v5.897H54.8zm29.393-.911c-1.003.541-2.213.8-3.654.903a8.168 8.168 0 01-2.523-.388c-.798-.257-1.518-.619-2.11-1.11-.618-.465-1.107-1.085-1.467-1.808-.36-.724-.541-1.55-.541-2.506v-.077c0-1.034.18-1.938.566-2.687a5.071 5.071 0 011.57-1.886c.67-.516 1.493-.878 2.446-1.137.952-.258 2.007-.387 3.14-.387 1.08 0 2.008.052 2.78.207.772.129 1.518.336 2.264.568V23.3c0-1.37-.385-2.376-1.184-3.074-.797-.697-1.956-1.033-3.474-1.033-1.056 0-2.008.103-2.831.31a17.01 17.01 0 00-2.523.852l-1.133-3.384c1.03-.49 2.11-.853 3.192-1.137 1.107-.283 2.394-.413 3.887-.413 2.805 0 4.89.697 6.228 2.093a6.677 6.677 0 011.519 2.505c.335.956.489 2.067.489 3.307v11.65h-4.195v-2.841c-.644.749-1.442 1.395-2.446 1.938zm-5.07-3.1c.695.516 1.57.749 2.626.775.694 0 1.364-.104 1.981-.285.593-.206 1.133-.465 1.57-.826a4.24 4.24 0 001.056-1.292 3.64 3.64 0 00.386-1.653V26.4c-.541-.232-1.185-.388-1.905-.542a13.483 13.483 0 00-2.368-.207c-1.39 0-2.471.284-3.243.827-.772.542-1.158 1.317-1.158 2.324v.078c0 .904.36 1.602 1.055 2.092zm31.505 3.255a8.146 8.146 0 01-3.218.645c-1.57 0-2.857-.336-3.887-1.007a9.957 9.957 0 01-2.522-2.326v3.436h-4.298V8.395H101v10.358c.669-.981 1.518-1.807 2.548-2.505 1.004-.697 2.29-1.034 3.835-1.034a8.32 8.32 0 013.217.646c1.056.414 1.982 1.06 2.78 1.886.798.827 1.468 1.86 1.957 3.075.488 1.213.746 2.609.746 4.184v.078c0 1.575-.232 2.97-.72 4.184-.49 1.215-1.133 2.248-1.957 3.075a8.18 8.18 0 01-2.78 1.886zm-6.358-3.54c.669.284 1.364.44 2.085.414.746 0 1.44-.156 2.084-.44a5.183 5.183 0 001.7-1.188 5.554 5.554 0 001.158-1.885c.283-.75.437-1.577.437-2.506v-.078c0-.904-.154-1.73-.437-2.48-.284-.749-.67-1.395-1.159-1.912a5.269 5.269 0 00-1.699-1.214 5.206 5.206 0 00-2.084-.439 5.3 5.3 0 00-2.085.44 4.934 4.934 0 00-1.75 1.24 6.484 6.484 0 00-1.185 1.911 6.728 6.728 0 00-.437 2.454v.078c0 .904.129 1.705.437 2.454a5.998 5.998 0 001.184 1.911 5.17 5.17 0 001.75 1.24zm15.83 4.295h4.298V8.421h-4.299v26.562zm22.29-1.04c-1.236.645-2.729.956-4.48.956a10.19 10.19 0 01-3.783-.723 9.36 9.36 0 01-3.063-1.99 8.836 8.836 0 01-2.06-3.073c-.488-1.189-.746-2.532-.746-3.979v-.077c0-1.37.206-2.635.67-3.824a9.45 9.45 0 011.904-3.125 9.413 9.413 0 012.909-2.093c1.106-.516 2.342-.775 3.706-.775 1.493 0 2.806.285 3.938.827 1.107.568 2.06 1.291 2.806 2.222.747.93 1.312 2.015 1.699 3.229a12.94 12.94 0 01.566 3.874c0 .208-.026.388-.026.595 0 .207-.025.413-.051.62h-13.797c.232 1.524.85 2.712 1.828 3.539.978.826 2.188 1.24 3.578 1.24 1.08 0 2.007-.181 2.78-.569a8.485 8.485 0 002.316-1.679l2.523 2.248a10.69 10.69 0 01-3.218 2.557zm-9.833-10.204h9.6a7.9 7.9 0 00-.463-1.937c-.232-.62-.54-1.137-.952-1.576a4.529 4.529 0 00-1.442-1.06c-.566-.257-1.184-.387-1.904-.387-1.313 0-2.42.465-3.27 1.37-.849.93-1.39 2.118-1.57 3.59z" id="Talkable" fill="#FFF"/></g></g></g></g></g></g></svg>