<svg class="svg-icon" style="width:1em;height:1em;vertical-align:middle" viewBox="0 0 1024 1024" xmlns="http://www.w3.org/2000/svg" fill="currentColor" overflow="hidden"><path d="M799.92 306.814v-140.32H225.401v140.32h211.807v91.675c-172.175 7.743-301.825 41.683-301.825 82.404 0 40.722 129.649 74.66 301.825 82.404v294.211h150.906v-294.28c171.511-7.86 300.503-41.738 300.503-82.336 0-40.603-128.992-74.492-300.503-82.342v-91.737H799.92zm23.831 165.789c0 26.782-100.251 49.247-235.637 55.484l-8.749.371h-.967l-8.204.302h-.888c-6.102.209-12.278.388-18.532.529h-.388l-8.389.174h-2.371l-6.62.089h-41.923l-6.552-.089h-2.276l-7.827-.164h-.86c-9.277-.207-18.414-.493-27.416-.841h-.118l-8.962-.388c-136.061-6.142-236.958-28.685-236.958-55.595 0-26.916 100.914-49.392 236.958-55.602v85.107c23.617 1.231 48.74 1.906 74.796 1.906 26.471 0 52.101-.686 76.116-1.974v-84.786c135.504 6.221 235.767 28.697 235.767 55.477zm0 0" fill="#0E932E"/></svg>